{"asset":{"version":"2.0","generator":"babylon.js glTF exporter for Autodesk MAYA 2023.1 v20220628.14"},"scene":0,"scenes":[{"nodes":[0,1]}],"nodes":[{"mesh":0,"translation":[0.0,-0.189202651,0.0],"name":"head"},{"name":"aiSkyDomeLight1"}],"meshes":[{"primitives":[{"attributes":{"POSITION":1,"TANGENT":2,"NORMAL":3,"TEXCOORD_0":4},"indices":0,"material":0},{"attributes":{"POSITION":6,"TANGENT":7,"NORMAL":8,"TEXCOORD_0":9},"indices":5,"material":1}],"name":"head"}],"accessors":[{"bufferView":0,"componentType":5123,"count":13188,"type":"SCALAR","name":"accessorIndices"},{"bufferView":1,"componentType":5126,"count":3766,"max":[0.03887569,0.224425733,0.03696883],"min":[-0.03887569,0.1573692,-0.025058141],"type":"VEC3","name":"accessorPositions"},{"bufferView":2,"componentType":5126,"count":3766,"type":"VEC4","name":"accessorTangents"},{"bufferView":1,"byteOffset":45192,"componentType":5126,"count":3766,"type":"VEC3","name":"accessorNormals"},{"bufferView":3,"componentType":5126,"count":3766,"type":"VEC2","name":"accessorUVs"},{"bufferView":0,"byteOffset":26376,"componentType":5123,"count":576,"type":"SCALAR","name":"accessorIndices"},{"bufferView":1,"byteOffset":90384,"componentType":5126,"count":1149,"max":[0.0304098316,0.224425733,0.04146968],"min":[-0.0330790542,0.1573692,-0.025058141],"type":"VEC3","name":"accessorPositions"},{"bufferView":2,"byteOffset":60256,"componentType":5126,"count":1149,"type":"VEC4","name":"accessorTangents"},{"bufferView":1,"byteOffset":104172,"componentType":5126,"count":1149,"type":"VEC3","name":"accessorNormals"},{"bufferView":3,"byteOffset":30128,"componentType":5126,"count":1149,"type":"VEC2","name":"accessorUVs"}],"bufferViews":[{"buffer":0,"byteLength":27528,"name":"bufferViewScalar"},{"buffer":0,"byteOffset":27528,"byteLength":117960,"byteStride":12,"name":"bufferViewFloatVec3"},{"buffer":0,"byteOffset":145488,"byteLength":78640,"byteStride":16,"name":"bufferViewFloatVec4"},{"buffer":0,"byteOffset":224128,"byteLength":39320,"byteStride":8,"name":"bufferViewFloatVec2"}],"buffers":[{"uri":"Astrohead.bin","byteLength":263448}],"materials":[{"pbrMetallicRoughness":{"baseColorTexture":{"index":0},"metallicRoughnessTexture":{"index":1}},"name":"pasted__helmet"},{"pbrMetallicRoughness":{"baseColorFactor":[0.0451,0.0289,0.0203,1.0],"roughnessFactor":0.0},"name":"pasted__helmet_chrome"}],"textures":[{"sampler":0,"source":0,"name":"texture_ready_helmet_BaseColor.png"},{"sampler":0,"source":1,"name":"pasted__file17pasted__file16.jpg"}],"images":[{"uri":"texture_ready_helmet_BaseColor.png"},{"uri":"pasted__file17pasted__file16.jpg"}],"samplers":[{"magFilter":9729,"minFilter":9987}]}