{"accessors" : [{"bufferView" : 0, "byteOffset" : 0, "componentType" : 5123, "count" : 10362, "type" : "SCALAR", "max" : [8648], "min" : [0]}, {"bufferView" : 1, "byteOffset" : 0, "componentType" : 5126, "count" : 8649, "type" : "VEC3", "max" : [0.4552059769630432, 0.9692129492759705, 0.6533912420272827], "min" : [-0.4552241265773773, -0.4095681607723236, -0.34209132194519043], "name" : "POSITION"}, {"bufferView" : 1, "byteOffset" : 12, "componentType" : 5126, "count" : 8649, "type" : "VEC4", "max" : [1.0000039339065552, 0.8086032867431641, 0.9985071420669556, 0], "min" : [-0.9999995231628418, -0.8072450160980225, -0.9985119700431824, 0], "name" : "TANGENT"}, {"bufferView" : 1, "byteOffset" : 28, "componentType" : 5126, "count" : 8649, "type" : "VEC3", "max" : [0.999983549118042, 1.0000011920928955, 0.9995824098587036], "min" : [-0.9999821782112122, -0.9998449087142944, -1.0000035762786865], "name" : "NORMAL"}, {"bufferView" : 1, "byteOffset" : 40, "componentType" : 5126, "count" : 8649, "type" : "VEC2", "max" : [0.9592300057411194, 0.8224719762802124], "min" : [0.00930699985474348, 0.02402597665786743], "name" : "TEXCOORD_0"}], "asset" : {"generator" : "Aspose.3D 22.7", "version" : "2.0"}, "buffers" : [{"uri" : "data:application/octet-stream;base64,", "byteLength" : 518108}], "bufferViews" : [{"buffer" : 0, "byteOffset" : 0, "byteLength" : 20724, "target" : 34963}, {"buffer" : 0, "byteOffset" : 20728, "byteLength" : 497376, "byteStride" : 48, "target" : 34962}], "materials" : [{"name" : "lambert2", "pbrMetallicRoughness" : {"baseColorFactor" : [0.92, 0.68, 0.54, 1], "metallicFactor" : 0, "roughnessFactor" : 0.450053632}, "emissiveFactor" : [0, 0, 0], "alphaMode" : "OPAQUE", "doubleSided" : false}], "meshes" : [{"primitives" : [{"attributes" : {"POSITION" : 1, "TANGENT" : 2, "NORMAL" : 3, "TEXCOORD_0" : 4}, "indices" : 0, "material" : 0, "mode" : 4}]}], "nodes" : [{"mesh" : 0, "name" : "head_BasicHead_basicHeadgroup"}, {"children" : [0], "name" : "group"}], "scene" : 0, "scenes" : [{"nodes" : [1]}]}