{"accessors" : [{"bufferView" : 0, "byteOffset" : 0, "componentType" : 5123, "count" : 927, "type" : "SCALAR", "max" : [770], "min" : [0]}, {"bufferView" : 1, "byteOffset" : 0, "componentType" : 5126, "count" : 771, "type" : "VEC3", "max" : [1.2999999523162842, 4, 1.5000009536743164], "min" : [-1.5, -0, -0.4000000059604645], "name" : "POSITION"}, {"bufferView" : 1, "byteOffset" : 12, "componentType" : 5126, "count" : 771, "type" : "VEC2", "max" : [0.9998319745063782, -0.00016799999866634607], "min" : [0.00016799999866634607, -0.9860290288925171], "name" : "TEXCOORD_0"}, {"bufferView" : 1, "byteOffset" : 20, "componentType" : 5126, "count" : 771, "type" : "VEC3", "max" : [1.0000044107437134, 1.0000044107437134, 1.0000044107437134], "min" : [-1.0000044107437134, -1.0000044107437134, -1.0000044107437134], "name" : "NORMAL"}], "asset" : {"generator" : "Aspose.3D 22.7", "version" : "2.0"}, "buffers" : [{"uri" : "data:application/octet-stream;base64,", "byteLength" : 31528}], "bufferViews" : [{"buffer" : 0, "byteOffset" : 0, "byteLength" : 1856, "target" : 34963}, {"buffer" : 0, "byteOffset" : 1860, "byteLength" : 29664, "byteStride" : 32, "target" : 34962}], "images" : [{"uri" : "data:image/png;base64,"}], "materials" : [{"name" : "TRUMPCleanedMaterial", "pbrMetallicRoughness" : {"baseColorFactor" : [0.8, 0.8, 0.8, 1], "baseColorTexture" : {"index" : 0, "texCoord" : 0}, "metallicFactor" : 0, "roughnessFactor" : 0}, "emissiveFactor" : [0, 0, 0], "alphaMode" : "OPAQUE", "doubleSided" : false}], "meshes" : [{"primitives" : [{"attributes" : {"POSITION" : 1, "TEXCOORD_0" : 2, "NORMAL" : 3}, "indices" : 0, "material" : 0, "mode" : 4}], "name" : ""}], "nodes" : [{"mesh" : 0, "name" : "TRUMPCleaned_TRUMP.001"}], "samplers" : [{"magFilter" : 9729, "minFilter" : 9729, "wrapS" : 10497, "wrapT" : 10497}], "scene" : 0, "scenes" : [{"nodes" : [0]}], "textures" : [{"sampler" : 0, "source" : 0, "name" : ""}]}